<!DOCTYPE svg PUBLIC "-//W3C//DTD SVG 20010904//EN" "http://www.w3.org/TR/2001/REC-SVG-20010904/DTD/svg10.dtd">
<svg version="1.0" xmlns="http://www.w3.org/2000/svg" width="256px" height="257px" viewBox="0 0 2560 2570" preserveAspectRatio="xMidYMid meet"><g fill="#010101" stroke="none">
 <path d="M63 2507 c-50 -51 -53 -57 -53 -103 0 -55 40 -150 92 -218 17 -22 120 -131 229 -241 l197 -200 38 -135 c57 -199 52 -277 -38 -549 l-30 -93 31 -132 c18 -72 46 -171 62 -219 21 -62 28 -98 24 -120 -22 -110 -73 -266 -115 -354 l-49 -103 26 -6 c38 -10 204 3 276 22 34 8 105 33 157 55 l95 39 151 -34 c82 -19 179 -45 215 -60 61 -24 79 -26 215 -27 82 -1 177 4 211 10 67 13 174 46 212 66 21 11 38 9 110 -11 47 -12 123 -37 169 -53 45 -17 89 -31 96 -31 19 0 67 136 100 280 14 63 34 145 44 182 19 66 19 66 -3 125 l-22 58 18 90 c31 151 21 341 -24 472 -13 38 -13 51 3 128 l18 86 -25 70 c-38 111 -83 289 -89 360 l-7 67 -101 31 c-55 17 -165 46 -243 63 -168 38 -166 38 -418 -42 -87 -28 -167 -51 -179 -51 -11 0 -52 11 -91 26 -38 15 -119 40 -178 55 l-108 29 -110 -22 -109 -21 -228 225 c-125 125 -249 241 -277 260 -67 45 -152 78 -199 79 -34 0 -46 -7 -93 -53z m1859 -615 c14 -53 25 -98 24 -99 -1 -1 -33 8 -71 19 -57 17 -102 22 -240 24 -141 2 -171 5 -173 17 -2 9 5 18 15 20 21 6 353 107 368 112 43 15 50 6 77 -93z m170 64 c79 -19 168 -43 198 -54 l55 -19 7 -60 c6 -47 43 -193 85 -336 11 -35 -87 20 -165 94 -74 71 -183 148 -247 175 -30 12 -37 22 -51 72 -9 31 -22 79 -30 106 -8 27 -14 51 -14 53 0 7 24 2 162 -31z m-1030 -98 l3 -68 -77 77 c-43 42 -76 78 -74 80 1 2 34 9 72 16 l69 12 2 -25 c1 -14 4 -55 5 -92z m310 35 c40 -18 58 -31 60 -47 3 -18 -7 -24 -77 -47 -44 -14 -109 -40 -144 -58 l-64 -33 -22 24 c-20 20 -24 38 -29 135 l-7 112 113 -30 c62 -17 139 -42 170 -56z m-649 -410 c-32 -6 -59 -11 -59 -10 -5 6 -54 170 -54 180 0 6 38 -27 85 -73 l85 -85 -57 -12z m1097 125 l44 -14 -157 -55 -157 -56 -9 36 c-6 20 -13 53 -17 75 l-7 38 129 -5 c71 -2 149 -11 174 -19z m-321 -61 c7 -32 11 -60 9 -63 -4 -3 -212 31 -243 40 -5 2 10 13 35 26 63 32 174 71 181 62 3 -4 11 -33 18 -65z m451 8 c17 -9 30 -21 30 -28 0 -6 -14 -96 -32 -199 -23 -140 -35 -189 -47 -193 -9 -4 -107 -38 -219 -76 -163 -55 -202 -65 -198 -51 2 9 19 112 37 229 l33 212 165 59 c91 33 174 61 184 61 10 1 31 -6 47 -14z m175 -129 c101 -104 171 -231 193 -352 l9 -51 -146 48 c-80 26 -166 53 -189 59 -38 10 -43 14 -39 33 3 12 18 97 33 189 32 195 24 191 139 74z m-745 44 c74 -13 136 -24 137 -25 3 -1 -66 -448 -70 -450 -2 -3 -440 125 -445 130 -2 1 9 49 25 106 l27 104 82 84 c47 48 88 82 96 79 7 -3 74 -16 148 -28z m-545 -95 c-35 -61 -64 -138 -89 -239 l-22 -90 -73 -24 c-40 -13 -74 -22 -76 -20 -2 2 12 55 31 118 18 63 41 161 50 217 l17 102 56 11 c31 6 61 13 66 14 6 2 22 -8 37 -22 l28 -26 -25 -41z m1622 52 c1 -2 0 -20 -4 -41 -7 -42 -9 -41 -47 27 l-27 48 37 -16 c21 -9 39 -17 41 -18z m-527 -384 c7 -32 27 -128 45 -213 19 -85 32 -157 29 -159 -4 -5 -417 -101 -419 -98 -8 13 -95 371 -92 380 3 9 384 144 414 146 6 1 17 -25 23 -56z m114 37 c39 -12 119 -37 179 -58 l107 -36 0 -72 c0 -74 -27 -201 -55 -254 -18 -35 -13 -35 -171 -9 -61 10 -62 11 -68 47 -4 20 -24 119 -45 220 -22 106 -34 182 -28 182 5 0 42 -9 81 -20z m-1010 -236 c68 -251 68 -254 15 -254 -23 0 -30 9 -56 68 -17 37 -37 92 -44 122 -18 73 -18 272 0 294 8 9 15 15 17 13 2 -2 33 -111 68 -243z m201 175 c116 -34 212 -63 213 -64 6 -5 104 -387 100 -390 -4 -4 -407 31 -412 36 -2 2 -29 98 -60 214 -30 116 -60 224 -65 242 -7 23 -6 31 2 28 7 -2 107 -32 222 -66z m-513 -49 c-7 -68 17 -229 47 -317 31 -95 35 -88 -56 -95 l-41 -3 -31 90 c-32 94 -84 305 -77 312 3 3 140 49 156 52 3 1 4 -17 2 -39z m1251 -502 c-19 -89 -35 -164 -37 -166 -2 -2 -35 -14 -72 -27 -88 -30 -224 -48 -289 -38 l-51 8 26 145 25 144 200 47 c110 26 207 47 216 48 14 1 11 -21 -18 -161z m185 141 c45 -6 82 -15 82 -19 0 -14 -86 -124 -126 -161 -44 -41 -125 -101 -131 -96 -3 3 36 206 52 270 5 19 12 26 24 23 9 -3 53 -10 99 -17z m-1058 -66 c0 -39 -16 -44 -38 -13 l-23 30 31 0 c22 0 30 -5 30 -17z m269 2 c90 -8 165 -16 167 -18 5 -5 -42 -267 -49 -273 -8 -8 -102 24 -167 56 -55 28 -166 107 -189 134 -8 9 -10 31 -5 65 7 51 7 51 43 51 20 0 110 -7 200 -15z m1115 -3 c2 -4 -4 -39 -15 -77 -11 -39 -26 -101 -34 -140 -23 -107 -67 -245 -79 -245 -17 0 -236 74 -236 80 1 3 26 23 56 45 81 58 175 162 235 259 50 83 62 95 73 78z m-1632 -75 c20 -34 63 -94 96 -134 58 -68 60 -73 49 -102 -9 -26 -25 -35 -112 -70 -109 -43 -196 -66 -288 -74 -43 -4 -57 -3 -54 6 47 110 65 161 93 261 19 66 34 128 34 137 0 26 28 38 90 39 l55 0 37 -63z m228 -257 l35 -29 -40 9 c-22 5 -43 10 -47 10 -3 0 -4 9 -1 20 7 26 11 25 53 -10z"/>
 </g>

</svg>