<!DOCTYPE svg PUBLIC "-//W3C//DTD SVG 20010904//EN" "http://www.w3.org/TR/2001/REC-SVG-20010904/DTD/svg10.dtd">
<svg version="1.0" xmlns="http://www.w3.org/2000/svg" width="96px" height="96px" viewBox="0 0 960 960" preserveAspectRatio="xMidYMid meet"><g fill="#010101" stroke="none">
 <path d="M639 853 c-51 -59 -119 -170 -140 -229 -57 -161 28 -304 181 -304 153 0 238 143 181 304 -29 82 -154 266 -181 266 -4 0 -23 -17 -41 -37z m86 -288 c14 -13 25 -33 25 -45 0 -27 -43 -70 -70 -70 -27 0 -70 43 -70 70 0 12 11 32 25 45 13 14 34 25 45 25 12 0 32 -11 45 -25z"/>
 <path d="M239 613 c-51 -59 -119 -170 -140 -229 -57 -161 28 -304 181 -304 153 0 238 143 181 304 -29 82 -154 266 -181 266 -4 0 -23 -17 -41 -37z m86 -288 c14 -13 25 -33 25 -45 0 -27 -43 -70 -70 -70 -27 0 -70 43 -70 70 0 12 11 32 25 45 13 14 34 25 45 25 12 0 32 -11 45 -25z"/>
 </g>

</svg>